# xmcd CD database file
#
# Track frame offsets:
#	150
#	21053
#	41002
#	62046
#	84468
#	102131
#	123493
#	142513
#	159698
#	181571
#	205828
#	227378
#
# Disc length: 3310 seconds
#
# Revision: 0
# Processed by: cddbd v1.5.2PL0 Copyright (c) Steve Scherf et al.
# Submitted via: CDex 1.51
#
DISCID=8a0cec0c
DTITLE=Baia Ostinia - Salsa Vari
DYEAR=2006
DGENRE=Salsa
TTITLE0=17 - Celia Cruz - La Vida es un Carnaval
TTITLE1=12 - El Gran Combo - Me Libere Salsa
TTITLE2=12 - salsa
TTITLE3=07 - 1 DLG - Juliana sala
TTITLE4=El Rubio Loco - Gozalo
TTITLE5=Jerry Rivera - Vuela Muy Alto
TTITLE6=Puerto Rican Power - Tu Carinito
TTITLE7=Baila con migo - Baila con migo
TTITLE8=06 - The Spanish Harlem Orchestra_Un Gran Día En El Barrio_La Banda
TTITLE9=Cheo Feliciano - Por Mas Que Viva
TTITLE10=Micaela - Micaela
TTITLE11=Sonora Carruseles - La Comay (Boogaloo)
EXTD=YEAR: 2006
EXTT0=
EXTT1=
EXTT2=
EXTT3=
EXTT4=
EXTT5=
EXTT6=
EXTT7=
EXTT8=
EXTT9=
EXTT10=
EXTT11=
PLAYORDER=
